<?xml version="1.0" encoding="utf-8"?>
<!-- Generator: Adobe Illustrator 28.1.0, SVG Export Plug-In . SVG Version: 6.00 Build 0)  -->
<svg version="1.1" id="bixia" xmlns="http://www.w3.org/2000/svg" xmlns:xlink="http://www.w3.org/1999/xlink" x="0px" y="0px"
	 viewBox="0 0 841.89 595.28" style="enable-background:new 0 0 841.89 595.28;" xml:space="preserve">
<style type="text/css">
	.st0{fill:#F07D1A;}
	.st1{fill:#2B2523;}
</style>
<g>
	<g>
		<g>
			<path class="st0" d="M203.13,240.92c15.39-1.33,30.8-0.72,45.8,2.1c41.01,7.68,73.67,30.21,92,63.38
				c14.72,26.67,18.76,57.64,11.95,89.13h37.11c7.98-38.27,2.94-75.88-14.96-108.29c-22.52-40.79-62.69-68.48-113.13-77.94
				c-69.36-13.03-207.17,10.16-256.15,154.9C66.91,263.56,151.88,243.06,203.13,240.92z"/>
			<path class="st0" d="M141.1,280.19C96.63,295,56.53,330.72,33.84,375.73c-3.3,6.55-6.16,13.17-8.58,19.81h37.82
				c1.36-3.25,2.85-6.5,4.48-9.73c17.62-34.97,47.99-62.46,81.2-73.5c31.04-10.33,88.79-20.93,126.98,24.21
				c14,16.54,16.88,38.16,12.25,59.03h37.15c6.12-29.03,1.59-59.04-18.36-82.62C269.92,269.35,209.54,257.42,141.1,280.19z"/>
			<path class="st0" d="M242.62,346.01c-31.5-26.04-84.72-20.38-121.15,12.9c-11,10.06-19.89,22.85-25.85,36.63h38.74
				c3.19-5.4,7.07-10.3,11.47-14.33c23.53-21.49,53.7-21.01,69.28-8.13c6.21,5.13,9.69,14.03,8.56,22.45h37.02
				C263.6,376.29,256.24,357.27,242.62,346.01z"/>
		</g>
	</g>
	<g>
		<path class="st1" d="M459.99,271.71c8.96-1.68,20.52-2.98,33.02-2.98c13.06,0,22.76,1.68,31.16,6.72
			c8.4,4.29,14.55,12.31,14.55,22.95c0,15.86-11.75,25.94-25.38,29.85v0.56c12.13,3.73,19.78,13.62,19.78,27.43
			c0,13.43-7.28,23.32-17.17,29.85c-10.63,7.09-26.49,10.26-47.39,10.26c-14.18,0-25.56-1.12-31.72-2.42L459.99,271.71z
			 M466.71,374.71c3.18,0.37,6.35,0.56,10.27,0.56c14.55,0,27.8-5.79,27.8-19.78c0-12.51-10.45-16.23-22.95-16.23h-8.4
			L466.71,374.71z M477.53,319.66h8.95c14.74,0,24.82-6.34,24.82-16.98c0-9.14-7.46-13.06-17.73-13.06c-4.66,0-8.39,0.37-10.45,0.93
			L477.53,319.66z"/>
		<path class="st1" d="M807.13,302.12c-44.97,0-65.31,32.84-65.31,63.62c0,19.03,11.19,31.72,27.61,31.72
			c10.64,0,22.2-5.04,30.6-20.15h0.56l-0.44,4.91c0,0-1.3,13.16,8.83,13.16c9.36,0,13.28,0.03,13.28,0.03s1.93-18.16,2.56-23.95
			c0.64-5.8,12.52-64.86,12.52-64.86C829.7,304.18,817.95,302.12,807.13,302.12z M802.83,344.29
			c-4.11,22.39-13.99,31.53-22.02,31.53c-7.46,0-11.01-6.16-11.01-15.11c0-16.98,12.69-38.25,30.04-38.25
			c2.61,0,5.22,0.37,7.28,0.75L802.83,344.29z"/>
		<g>
			<path class="st1" d="M574.88,292.8c-7.28,0-12.88-5.04-12.88-13.06c0.19-9.14,7.28-15.3,15.49-15.3
				c7.84,0,13.44,5.22,13.44,13.25c0,9.52-7.28,15.11-15.86,15.11H574.88z"/>
			<path class="st1" d="M573.88,304.18c-11,0.02-16.85,6.9-18.34,14.4l-14.61,76.84h26.87l17.35-91.24H573.88z"/>
		</g>
		<g>
			<path class="st1" d="M725.76,292.8c-7.27,0-12.88-5.04-12.88-13.06c0.19-9.14,7.28-15.3,15.49-15.3
				c7.84,0,13.43,5.22,13.43,13.25c0,9.52-7.28,15.11-15.86,15.11H725.76z"/>
			<path class="st1" d="M724.75,304.18c-11,0.02-16.85,6.9-18.34,14.4l-14.61,76.84h26.87l17.35-91.24H724.75z"/>
		</g>
		<path class="st1" d="M693.32,304.18h-17.97c-13.67,0-16.36,4.74-23.16,14.75c-2.92,4.3-6.16,9.43-9.43,14.17h-0.56
			c-1.31-3.55-2.99-8.02-5.79-15.31l-5.41-13.62h-29.48l21.46,44.03l-39.55,47.21h24.09c5.34,0,8.32-2.1,11.83-7.25
			c0.59-0.87,2.27-3.34,2.27-3.34l3.6-5.28c4.1-6.35,6.72-11.01,9.33-15.3h0.56c1.68,5.41,3.17,9.89,5.78,16.61l5.79,14.56h29.48
			l-21.27-47.02L693.32,304.18z"/>
	</g>
</g>
</svg>
