<?xml version="1.0" encoding="utf-8"?>
<!-- Generator: Adobe Illustrator 21.0.2, SVG Export Plug-In . SVG Version: 6.00 Build 0)  -->
<svg version="1.1" id="Lager_1" xmlns="http://www.w3.org/2000/svg" xmlns:xlink="http://www.w3.org/1999/xlink" x="0px" y="0px"
	 viewBox="0 0 1050 1028.7" enable-background="new 0 0 1050 1028.7" xml:space="preserve">
<g>
	<path fill="#0072BC" d="M503.9,25c41.1,0,82.7-0.9,119.3,7.1c162.4,36,286.4,178.4,285.3,352.4c-0.3,47.2-5.2,85.2-27.8,122.6
		c-1.6,2.8-2.3,6.3-3.3,9.8c-1.3,4.3,2.7,8.7,0.5,12.2c-5.2,8.5-25.1,16.2-45.6,19.7c-8.9,1.5-25.9,4.9-32.2,2.8
		c-4.4-1.5-3.8-8.1-6.5-11.5c-1.5-1.9-3-5-4.8-4.4c-4.8,1.4-2.9,0.5-0.7-2.8c5.2-19.3,10.4-38.6,15.5-58
		c6.6-23.8,13.2-47.6,19.7-71.5c4-21.3,1.2-48-1.4-68.5c-2.4-18.4-9.5-35.7-15.4-52.3c-16.3-45.3-47.8-89.8-87.2-122.3
		c-62.8-51.7-175.4-72.4-258-41.9c-99.3,36.5-161.6,111.3-172,220.7c-4.7,48.8,0.5,102.6,4.1,148.5c1.5,19,6.6,38.8,13.2,55.8
		c2.8,7.2,12.3,16,12.3,23.9c-13.9-2.2-25-8.5-36.3-15.5c-5.6-3-11.2-5.9-16.8-8.9c-10.4-9-17.6-14.7-23.4-22.8
		c-8.6-12-14-26.9-21.3-44.9c-16.7-40.7-27.2-81.9-28.1-122C190.1,233,257.3,118.9,369.9,59.7c26.5-14,60-27.3,93-27.3
		c5.8-3.6,16-3,23.7-3C492.4,27.9,498.2,26.5,503.9,25"/>
</g>
<g>
	<path fill="#FFCB05" d="M551.2,309.2c-3.2,3-9.6,6.7-14.2,7.7c-9,2.1-17,0.3-22.2,7.1c-12.7,16.3-6.9,73.5,15.1,78.5
		c43.7,10,79-17.8,69-61.1c-2.3-9.7-5.8-20-14.8-25.4C574.8,310.3,563.3,309.5,551.2,309.2 M581.4,175.7c5.1-3.4,18.7,3.1,18.7,10.6
		c0.2,13.3-2,43.4-1.2,60.4c0.2,4.8-0.1,12.1,3.6,15.3c6.5,5.7,13.7,7.7,20.9,7.3c8-0.4,15-8.2,22.2-13.1c4-2.6,8.7-1.3,12-4.5
		c3.5-3.5,9-11.5,14.3-11.5c3,1.2,10.8,0.7,10.8,4.3c3.7,6.9,6.5,16,10.8,24.8c-8.4,4.5-20.9,9.1-27.8,16.3
		c-5.6,5.8-17.2,25.2-11.6,33.7c5.4,8.1,19.4,6.2,28.2,8.4c12.4,3.1,67.1,18.4,67.1,33.1c-10.5,0.3-18.4,2.9-28.1,3.4
		c-7.9-0.9-15.7-1.8-23.7-2.8c-11.4,0-46.1,7.2-44.7,20.6c0.8,8.7,11.4,14.7,17.6,19.3c14.1,10.4,40.1,36.5,40.1,54.2
		c-9.4,1.1-18,8.2-27.6,6.4c-13.3-2.6-29.3-14.5-38.5-24.3c-3.2-4.4-6.5-8.7-9.7-13.1c-3-2-8.4-2-11.8-1c-5,1.3-8.9,6-12.2,9.7
		c-21.1,23.1,18,46.5,18,69.6c-7.7,1.1-16.1,10.6-24.6,9.4c-9.5-1.5-25-23.1-28.9-32.2c-3-7.1-2.5-16.3-2.5-24.6h-25.8
		c-2.1,15.7-9.8,29.6-19,41.7c-3.6,4.6-15.5,12.4-15.5,18.6c-4.3,0-5.8,6.5-10.8,6.5c0-4.3,6.5-15.1,6.5-19.4
		c-4.3,1.4-11.8,2.9-16.1,4.3c0.7-24.7,24.8-37.6,24.8-56c-24.1,0.7-23.8-17.2-34.4-11.3c-10.8,6-34.4,20.6-51.9,24.4
		c-17.7,3.9,3.7-11-16-17.4c3.8-7.2,14.2-10.4,19.6-15.9c5.9-6.2,12.7-20.1,12.3-29.3c-0.9-6.5-1.9-12.9-2.8-19.4
		c-14.7,0.4-25.2,6.8-38.8,7.9c-7.1-0.3-14.1-0.5-21.2-0.7c-3-0.9-5.9-1.9-8.9-2.9c0.5-2,2.4-7.2,1.2-10.8c-1.2-3.4-5.5-5.3-8.7-5.3
		c0-2.9,4.6-3.2,7.5-3.2v-2.2c20.6-9.6,38.7-21.5,64.6-21.5c1.2-38.9-15.1-19.2-32.4-40.4c-10.8-13.4-12.4-28.2-18.6-43.9
		c-0.2-0.6-0.4-1.2-0.7-1.8h2.2c2.2-0.7,4.3-1.4,6.5-2.2v-2.2h4.3c9.4,14.2,27.6,13.3,42,19.3c9.9,4.1,19.7,15.1,31.1,15.1
		c2.5-5.5,9.9-9.4,7-15.2c-6.7-13.2-7.3-22.4-9.8-32.6c-1.3-10.7-2.7-21.4-4-32.2c-9.1-20.2,5.1-6.1,13.3-7.2
		c13.8,8.8,11.8,19.4,22.1,32.4c5,6.3,8.9,17.2,16.3,21.6c6.7,3.9,23.9,4,30.6-0.1c0.2-0.2,0.5-0.3,0.7-0.5
		c8.8-7.8,7.7-25.9,12-36.3C568.1,202.4,577.5,191.9,581.4,175.7"/>
	<path fill="#009E53" d="M876.3,565.3c24.9,35.2,4.3,67.9-18.5,90.1c-4.6,4.4-13.5,11.1-19.2,13.3c-0.8,0.3-2.7,0.6-3.6,0.8
		c-17.6,4.2-34.8-1.1-53.5-0.7c-41.8,0.6-86.4,3.8-127,3.2c-9.4-0.2-17-2.4-25.9-2.6c-12.8-0.5-25.6,2.4-38.7,3.1
		c-10-0.4-20-0.7-30.1-1.1c-10.8,1-21.5,2.1-32.4,3.1c-24.8,1.5-50.8,0.1-75.3-0.6c-9.2-0.3-16.3,3.3-25.8,2.6
		c-17.6-1.4-28.5-14.7-47.4-15.9c-38.3-2.5-79.6,7.1-116.4,0.5c-7.5-1.4-17.4,1.3-23.9-2.2c-19.5-10.4-18.6-46.9-26-65.4
		c-3.4-5.8-11-10.5-14.5-16.3c45.2,0,94.7-1.1,139.9-1.1c15.6-6.3,63.4-2.2,83.9-2.2c9.6-4.3,25-2.2,36.6-2.2
		c34.4,0.7,68.9,1.5,103.3,2.2c9.2-3.7,23.5-2.2,34.4-2.2c7.5-2.9,19.6,0,28,0c7.4-3.4,38.3-4.3,47.4-4.3c26.9,0,35.1,3.3,60.3,4.1
		c43.1,0.1,86.1,0.1,129.2,0.2C866.3,569.6,871.3,567.5,876.3,565.3"/>
	<path fill="#767D82" d="M546.9,756.9c43.5-0.9,73.9,9.8,73.9,9.8l-10.4,19.2c0,0-64-18.4-71.3,0.1c-6.5,15.9,59.5,20.8,68.7,38.5
		c4,7.8,4,11.3,1.3,17.7c9.4,0.7,23.3,3.3,28.2,2.9c7.8-0.6,12.9-8.3,14.9-13.3c5.7-14.8,30.5-72.3,30.5-72.3s48.1-0.5,64.4-0.5v2.2
		c-3.2,6.3-6.3,12.6-9.4,18.9c-25.1,50.1-20.9,86.2-93.9,86.4c-26.3-0.1-41-2.9-41-2.9s2.2-12,2.8-16.3c-2.2,0-1,0.9-3.2,0.9
		c-25.7,25.6-101.2,23.5-137.3,15.2c-3.8-0.9-15.5-3.5-15.5-3.5s1.9-4,2.6-4c2.9-6.5,9.9-20.2,9.9-20.2s2,1.6,3.4,1.6
		c16,11.4,41.8,9.6,63.8,9.6c8,0.4,10.6-1.4,13.3-3.8c11.4-28.5-53.1-14.7-67.9-44.3C460,769.2,530.5,757.2,546.9,756.9"/>
	<path fill="#767D82" d="M185.3,759.1h99l-10.7,21.2l-70.2,0.2c0,0-9.5,12.4-9.5,21.7h66.7l-10.2,19.2l-64.2-0.3l-9.6,22h77.5
		c3.7-5.1-11.5,21.2-11.5,21.2s-97.3,1.1-97.2,0.9c-2.8,0.3-6.7-1-13.3-8.3c-4.6-5.2-4.8-12.7-2.3-22.8c5.6-22.3,22.2-52.9,31-61.7
		C167,766.1,174.4,762.3,185.3,759.1"/>
	<polygon fill="#767D82" points="305.8,759.1 368.3,759.1 351,800 419.9,759.4 482.4,759.4 405.9,804.8 405.3,808.3 447.9,864.5 
		381.7,864.3 346.7,812.9 343.4,813 319.5,865 257.1,864.8 	"/>
</g>
<g>
	<path fill="#767D82" d="M837.5,778.4c-9.9,2.1-16.5,6.7-22.6,13.9c-38.9,45.8-1.2,55.6,22.6,53.6c15.5-1.3,17.4-5,24.9-12.4
		c10.4-10.4,28.1-44.1,7.7-51.9C859.1,777.3,848.5,778.4,837.5,778.4 M826.8,728.9h32.3c0,0.7-0.3,1.5-0.3,2.2
		c-3.8,8.1-7.9,16.6-10.5,25.8c8.6,0.7,25.8,0.4,25.8,0.4l12.3-27.5l28.6-0.9v2.2c0,0-7.6,19.4-12.8,30.5
		c64.8,12.9,46.1,73.7-4.6,94c-33.8,13.5-92.1,16.7-128.5,5.2c-52.5-16.5-37.5-57.4-5.1-81.5c15.8-11.7,35.1-19.5,53.5-19.5
		C820.4,749.1,823.9,739.7,826.8,728.9"/>
	<path fill="#767D82" d="M852.4,894c14.3,1,20.2,0.5,34.5,1.5c15.9,2.2,34.6,6.8,34.6,7.8c-4.8,5.1-14.1,20.7-14.1,20.7
		s-18.4-6.3-26.7-7.1c-31.3-3.6-96.1,2.8-90.8,44.2c1.1,8.5,7.9,14.1,15.7,16.4c16.1,4.8,28.4,4.6,35,1.2c0.3-0.3,8.8-18,8.9-19.2
		c0.5-4,4.1-10.7,4.1-10.7s41.7,0,59.3,0c-3.2,10.2-17,42.2-22.5,45.5c-13.1,7.7-36.3,9.3-53,9.3c-38.2,0-82.5,0.3-105.1-27.4
		c-5.9-7.3-7.1-16.7-4.6-26.4c7.3-29.4,47-50.5,85-53.5C821.9,894.9,835,894.9,852.4,894"/>
</g>
<g>
	<path fill="#767D82" d="M211.1,894.7l52.7,0.4l54,56h6l22.8-56.4l49.6,0.1c0,0-7.2,16.3-10.8,23.5c-8.5,18.7-17.1,37.4-25.7,56
		c-3.4,7.3-11.8,26.2-11.8,26.2l-45.5-0.3l-58.1-59.9l-6.3,0l-22.6,59.8l-51.7,0.6L211.1,894.7"/>
	<path fill="#767D82" d="M1025,894.7L976.6,1002l-66.7,0c0,0,12.5-28.4,37.7-81.4c2.8-7.2,10.2-25.3,10.2-25.3L1025,894.7"/>
	<path fill="#767D82" d="M620.8,915.3c-3.6,7.8-9.6,24.9-10,25.4c10,0,16.9,0,26.9,0c7.6-2.1,12.4-3.8,15.5-7.9
		c6.3-8.6,1.3-15.7-6.7-16.7C636.5,914.8,625.6,915.6,620.8,915.3 M613.4,895.1c32.8,0,87.4-7.3,104.1,15.8
		c23.6,32.8-45.1,45.3-45.1,45.3l0,2.1l27.4,37.6l2.1,4.5l-66.7,0.9l-20.2-38.4l-11.6-0.4l-15.7,38.3l-64.6,0.7l46.9-104.2
		C570.1,897.4,626.1,895.4,613.4,895.1"/>
</g>
<g>
	<path fill="#767D82" d="M443.6,894.7h98.2l-11.9,21.2l-69.4,0.2c0,0-9.9,12.4-9.9,21.7h67.5l-9.8,19.2l-67.7,0.2
		c0,0-3.5,6.6-4.7,9.5c-1.3,2.9-3.4,12-3.4,12h79.9l-11.5,21.4c0,0-97.3,0.9-97.2,0.6c-2.8,0.3-7.6,0.3-14.1-7.1
		c-4.6-5.2-5.2-14.4-2.7-24.5c5.6-22.3,24.4-53.5,33.2-62.2C426.3,900.8,434.3,895.2,443.6,894.7"/>
	<path fill="#767D82" d="M82,894.7h99l-10.7,21.2l-70.2,0.2c0,0-9.5,12.4-9.5,21.7h66.7l-10.2,19.2l-64.4,0.2l-9.4,21.5h77.5
		c3.7-5.1-11.5,21.4-11.5,21.4s-97.3,0.9-97.2,0.6c-2.8,0.3-6.7-1-13.3-8.3c-4.6-5.2-4.8-12.7-2.3-22.8c5.6-22.3,22.2-52.9,31-61.7
		C63.7,901.7,71.1,897.9,82,894.7"/>
</g>
</svg>
