<svg xmlns="http://www.w3.org/2000/svg" viewBox="0 0 193.55 88.3"><defs><style>.cls-1{fill:#ff7d0f;}.cls-2{fill:#003c78;}</style></defs><title>inray_Logo_ohne-Unterzeile</title><g id="Ebene_2" data-name="Ebene 2"><g id="Ebene_1-2" data-name="Ebene 1"><path class="cls-1" d="M142.72,88.3l2.48-5.18h15.87l-2.65,5.18Z"/><path class="cls-2" d="M16.6,8.3a8.18,8.18,0,0,1-8.3,8.3A8.18,8.18,0,0,1,0,8.3,8.18,8.18,0,0,1,8.3,0,8.18,8.18,0,0,1,16.6,8.3Zm-1,52.12H1.1V20.1H15.59ZM61.77,34.18V60.42H47.28V38.74c0-4-1.91-6.19-5.08-6.19-2.89,0-5.05,1.91-5.05,6.27v21.6H22.66V20.1h13.8v4.15c2.28-3.5,5.86-5.25,10.9-5.25C55.7,19,61.77,24.9,61.77,34.18Zm35-14.77L96,33.89A25.9,25.9,0,0,0,89.64,33c-4,0-6.48,1.42-6.48,5.86v21.6H68.64V20.1H82.47v4.07C84.71,20.59,88.25,19,93.17,19A18,18,0,0,1,96.79,19.41Zm45.21,41H128.08V56.88a14,14,0,0,1-11,4.6c-10.78,0-18.35-9.56-18.35-21.28S106.32,19,117.14,19a13.81,13.81,0,0,1,10.94,4.72V20.1H142ZM113.68,40.24c0,4.52,3,7.77,7.16,7.77S128,44.76,128,40.24s-3-7.77-7.16-7.77S113.68,35.73,113.68,40.24ZM164.62,76.7H148.79l13.59-25.39L145.78,20.1H162.5l15.22,31Zm28.93-56.6H177.68l7.71,16Z"/></g></g></svg>