<?xml version='1.0' encoding='UTF-8' standalone='no'?>
<svg baseProfile="tiny" height="100%" version="1.2" viewBox="1198 763 576 576" width="100%" xmlns="http://www.w3.org/2000/svg" xmlns:dc="http://purl.org/dc/elements/1.1/" xmlns:freecad="https://www.freecad.org/wiki/index.php?title=Svg_Namespace" xmlns:inkscape="http://www.inkscape.org/namespaces/inkscape" xmlns:rdf="http://www.w3.org/1999/02/22-rdf-syntax-ns#" xmlns:sodipodi="http://sodipodi.sourceforge.net/DTD/sodipodi-0.dtd" xmlns:svg="http://www.w3.org/2000/svg" xmlns:xlink="http://www.w3.org/1999/xlink">
 <title>Zizzla Logo</title>
 <defs/>

  <g fill="none" fill-rule="evenodd" id="DrawingContent" stroke="black" stroke-linecap="square" stroke-linejoin="bevel" stroke-width="1">
   <g fill="#000000" fill-opacity="1" font-family="Fira Sans" font-size="35.2778" font-style="normal" font-weight="400" stroke="none" transform="matrix(1,0,0,1,1485,1050)">
    <path d="M150,165.625 C158.629,165.625 165.625,158.629 165.625,150 C165.625,141.371 158.629,134.375 150,134.375 L-54.8907,134.375 L155.499,65.625 C162.849,62.9558 167.22,55.3936 165.865,47.6922 C164.51,39.9909 157.82,34.375 150,34.375 L-54.8907,34.375 L155.499,-34.375 C162.849,-37.0442 167.22,-44.6064 165.865,-52.3078 C164.51,-60.0091 157.82,-65.625 150,-65.625 L-54.8907,-65.625 L155.499,-134.375 C162.849,-137.044 167.22,-144.606 165.865,-152.308 C164.51,-160.009 157.82,-165.625 150,-165.625 L-150,-165.625 C-158.629,-165.625 -165.625,-158.629 -165.625,-150 C-165.625,-141.371 -158.629,-134.375 -150,-134.375 L54.8907,-134.375 L-155.499,-65.625 C-162.849,-62.9558 -167.22,-55.3936 -165.865,-47.6922 C-164.51,-39.9909 -157.82,-34.375 -150,-34.375 L54.8907,-34.375 L-155.499,34.375 C-162.849,37.0442 -167.22,44.6064 -165.865,52.3078 C-164.51,60.0091 -157.82,65.625 -150,65.625 L54.8907,65.625 L-155.499,134.375 C-162.849,137.044 -167.22,144.606 -165.865,152.308 C-164.51,160.009 -157.82,165.625 -150,165.625 L150,165.625" fill-rule="evenodd" vector-effect="non-scaling-stroke"/>
   </g>
   <g fill="none" font-family="Fira Sans" font-size="35.2778" font-style="normal" font-weight="400" stroke="#000000" stroke-linecap="round" stroke-linejoin="bevel" stroke-opacity="1" stroke-width="20" transform="matrix(1,0,0,1,1485,1050)">
    <path d="M275,0 C275,151.878 151.878,275 0,275 C-151.878,275 -275,151.878 -275,0 C-275,-151.878 -151.878,-275 0,-275 C151.878,-275 275,-151.878 275,0 " fill-rule="evenodd" vector-effect="none"/>
   </g>
  </g>

</svg>
