<svg width="522" height="95" viewBox="0 0 522 95" fill="none" xmlns="http://www.w3.org/2000/svg">
<path d="M7.36497 94.3171C6.18497 94.3171 4.98761 94.0304 3.88361 93.4251C0.407607 91.5211 -0.848398 87.1958 1.07827 83.7638L45.3343 4.89708C46.7676 2.33974 49.6409 0.906425 52.5716 1.29576C55.5036 1.67843 57.8996 3.79578 58.6116 6.63178L73.9916 67.9478L109.372 4.89708C110.806 2.33974 113.678 0.906425 116.609 1.29576C119.542 1.67843 121.938 3.79578 122.649 6.63178L137.873 67.3291L172.908 4.89708C174.836 1.46108 179.217 0.223778 182.689 2.12511C186.165 4.02911 187.421 8.3544 185.495 11.7864L141.585 90.0344C140.152 92.5918 137.276 94.0171 134.348 93.6358C131.416 93.2518 129.02 91.1357 128.308 88.2997L113.084 27.6024L77.7023 90.6531C76.2676 93.2104 73.393 94.6398 70.465 94.2544C67.533 93.8704 65.137 91.7544 64.4263 88.9184L49.0463 27.6024L13.6649 90.6531C12.3503 92.9958 9.89564 94.3171 7.36497 94.3171Z" fill="#002954"/>
<path d="M115.946 62.0138C115.946 66.2791 112.443 69.7391 108.126 69.7391C103.806 69.7391 100.305 66.2791 100.305 62.0138C100.305 57.7471 103.806 54.2885 108.126 54.2885C112.443 54.2885 115.946 57.7471 115.946 62.0138Z" fill="#DCAF57"/>
<path d="M221.593 20.21L236.633 39.4487H240.845V9.60468H234.956V28.9553L219.831 9.60468H215.748V39.4487H221.593V20.21Z" fill="#002954"/>
<path d="M258.939 6.6355C259.884 6.6355 260.651 6.33012 261.239 5.72078C261.824 5.11278 262.117 4.35811 262.117 3.45011C262.117 2.54478 261.824 1.78747 261.239 1.17814C260.651 0.571475 259.884 0.266113 258.939 0.266113C258.051 0.266113 257.304 0.571475 256.703 1.17814C256.103 1.78747 255.8 2.54478 255.8 3.45011C255.8 4.35811 256.103 5.11278 256.703 5.72078C257.304 6.33012 258.051 6.6355 258.939 6.6355Z" fill="#002954"/>
<path d="M268.177 6.6355C269.123 6.6355 269.889 6.33012 270.477 5.72078C271.063 5.11278 271.357 4.35811 271.357 3.45011C271.357 2.54478 271.063 1.78747 270.477 1.17814C269.889 0.571475 269.123 0.266113 268.177 0.266113C267.289 0.266113 266.543 0.571475 265.943 1.17814C265.341 1.78747 265.04 2.54478 265.04 3.45011C265.04 4.35811 265.341 5.11278 265.943 5.72078C266.543 6.33012 267.289 6.6355 268.177 6.6355Z" fill="#002954"/>
<path d="M261.216 9.60486L249.055 39.4489H255.157L257.313 33.8875H269.747L271.873 39.4489H278.105L265.987 9.60486H261.216ZM259.189 29.0475L263.572 17.7435L267.896 29.0475H259.189Z" fill="#002954"/>
<path d="M304.449 27.0316C303.932 25.9716 303.252 25.1009 302.405 24.4223C301.561 23.7409 300.629 23.1889 299.615 22.7663C298.596 22.3409 297.58 21.9582 296.561 21.6182C295.545 21.2809 294.613 20.9263 293.769 20.5583C292.924 20.1916 292.243 19.7503 291.728 19.2423C291.212 18.7316 290.953 18.069 290.953 17.2476C290.953 16.2863 291.34 15.549 292.115 15.0396C292.888 14.529 293.948 14.2769 295.293 14.2769C296.468 14.2769 297.523 14.5036 298.452 14.9543C299.384 15.4089 300.295 16.1156 301.183 17.0783L305.049 13.2569C303.989 12.0396 302.629 11.049 300.968 10.2863C299.305 9.5223 297.443 9.13827 295.38 9.13827C293.432 9.13827 291.684 9.47824 290.139 10.1569C288.589 10.8369 287.373 11.8129 286.484 13.0876C285.597 14.3609 285.153 15.9036 285.153 17.7156C285.153 19.2422 285.411 20.5102 285.925 21.5142C286.44 22.5169 287.121 23.3383 287.967 23.9756C288.813 24.6116 289.743 25.1423 290.761 25.5676C291.777 25.9903 292.796 26.3689 293.811 26.6916C294.828 27.0182 295.76 27.3783 296.605 27.7756C297.449 28.1703 298.132 28.6529 298.647 29.2183C299.161 29.7849 299.42 30.5209 299.42 31.4263C299.42 32.4729 298.969 33.2943 298.065 33.8876C297.164 34.4823 295.953 34.7796 294.435 34.7796C292.744 34.7796 291.311 34.4609 290.139 33.8236C288.963 33.1862 287.932 32.2902 287.044 31.1289L283.176 34.9503C284.579 36.5903 286.147 37.8209 287.881 38.6423C289.615 39.4623 291.697 39.8743 294.133 39.8743C297.573 39.8743 300.279 39.0823 302.256 37.4956C304.233 35.9116 305.223 33.733 305.223 30.9596C305.223 29.4036 304.964 28.0942 304.449 27.0316Z" fill="#002954"/>
<path d="M330.383 24.4223C329.539 23.7423 328.607 23.1889 327.591 22.7663C326.572 22.3409 325.556 21.9582 324.539 21.6182C323.521 21.2809 322.591 20.9263 321.747 20.5583C320.9 20.1916 320.22 19.7503 319.705 19.2423C319.188 18.7316 318.929 18.069 318.929 17.2476C318.929 16.2863 319.316 15.549 320.092 15.0396C320.865 14.529 321.925 14.2769 323.271 14.2769C324.445 14.2769 325.499 14.5036 326.429 14.9543C327.361 15.4089 328.271 16.1156 329.16 17.0783L333.027 13.2569C331.967 12.0396 330.605 11.049 328.945 10.2863C327.281 9.5223 325.42 9.13827 323.356 9.13827C321.408 9.13827 319.661 9.47824 318.115 10.1569C316.567 10.8382 315.349 11.8129 314.461 13.0876C313.573 14.3609 313.129 15.9036 313.129 17.7156C313.129 19.2422 313.388 20.5102 313.903 21.5142C314.417 22.5169 315.097 23.3383 315.944 23.9756C316.789 24.6116 317.72 25.1423 318.739 25.5676C319.755 25.9916 320.772 26.3689 321.788 26.6916C322.804 27.0182 323.736 27.3783 324.583 27.7756C325.427 28.1703 326.108 28.6529 326.624 29.2183C327.137 29.7849 327.396 30.5209 327.396 31.4263C327.396 32.4729 326.947 33.2943 326.043 33.8876C325.141 34.4823 323.931 34.7796 322.411 34.7796C320.721 34.7796 319.288 34.4609 318.115 33.8236C316.94 33.1862 315.908 32.2902 315.02 31.1289L311.152 34.9503C312.556 36.5903 314.124 37.8209 315.857 38.6423C317.591 39.4623 319.675 39.8743 322.111 39.8743C325.549 39.8743 328.256 39.0823 330.232 37.4956C332.209 35.9116 333.199 33.733 333.199 30.9596C333.199 29.4036 332.94 28.0942 332.425 27.0316C331.909 25.9716 331.229 25.1009 330.383 24.4223Z" fill="#002954"/>
<path d="M346.607 39.8745C348.699 39.8745 350.509 39.4424 352.043 38.5784C353.576 37.7171 354.764 36.4998 355.609 34.9278C356.453 33.3571 356.877 31.5238 356.877 29.4304V9.60508H350.989V29.7704C350.989 30.7891 350.811 31.6531 350.452 32.3597C350.095 33.0664 349.577 33.6064 348.905 33.9718C348.232 34.3411 347.451 34.5251 346.563 34.5251C345.675 34.5251 344.867 34.3345 344.135 33.9505C343.404 33.5691 342.781 33.0104 342.267 32.2744L338.312 36.0104C339.229 37.1998 340.383 38.1398 341.772 38.8331C343.161 39.5278 344.773 39.8745 346.607 39.8745Z" fill="#002954"/>
<path d="M392.137 13.5759C390.72 12.1746 389.065 11.0839 387.175 10.3052C385.284 9.52921 383.22 9.13855 380.985 9.13855C378.779 9.13855 376.731 9.52921 374.84 10.3052C372.949 11.0839 371.295 12.1746 369.876 13.5759C368.459 14.9772 367.355 16.6039 366.568 18.4572C365.779 20.3119 365.387 22.3119 365.387 24.4639C365.387 26.6146 365.787 28.6319 366.588 30.5146C367.389 32.3946 368.5 34.0359 369.919 35.4372C371.337 36.8372 372.997 37.9346 374.904 38.7266C376.811 39.5186 378.865 39.9159 381.071 39.9159C383.277 39.9159 385.319 39.5186 387.196 38.7266C389.072 37.9346 390.72 36.8372 392.137 35.4372C393.556 34.0359 394.667 32.4012 395.468 30.5332C396.271 28.6666 396.672 26.6572 396.672 24.5052C396.672 22.3559 396.271 20.3466 395.468 18.4786C394.667 16.6106 393.556 14.9772 392.137 13.5759ZM389.429 29.7292C388.615 31.2279 387.488 32.4013 386.056 33.2506C384.623 34.1013 382.933 34.5239 380.985 34.5239C379.583 34.5239 378.285 34.2839 377.095 33.8026C375.907 33.3226 374.888 32.6439 374.045 31.7639C373.199 30.8892 372.541 29.8266 372.068 28.5813C371.595 27.3373 371.359 25.9652 371.359 24.4639C371.359 22.4826 371.768 20.7439 372.584 19.2426C373.4 17.7439 374.531 16.5759 375.98 15.7399C377.424 14.9052 379.095 14.4879 380.985 14.4879C382.447 14.4879 383.764 14.7279 384.939 15.2106C386.113 15.6906 387.131 16.3773 387.991 17.2679C388.851 18.1599 389.509 19.2146 389.967 20.4319C390.425 21.6493 390.656 22.9932 390.656 24.4639C390.656 26.4732 390.247 28.2279 389.429 29.7292Z" fill="#002954"/>
<path d="M376.387 6.6355C377.332 6.6355 378.099 6.33012 378.687 5.72078C379.273 5.11278 379.567 4.35811 379.567 3.45011C379.567 2.54478 379.273 1.78747 378.687 1.17814C378.099 0.571475 377.332 0.266113 376.387 0.266113C375.499 0.266113 374.755 0.571475 374.153 1.17814C373.551 1.78747 373.249 2.54478 373.249 3.45011C373.249 4.35811 373.551 5.11278 374.153 5.72078C374.755 6.33012 375.499 6.6355 376.387 6.6355Z" fill="#002954"/>
<path d="M385.625 6.6355C386.571 6.6355 387.337 6.33012 387.925 5.72078C388.513 5.11278 388.807 4.35811 388.807 3.45011C388.807 2.54478 388.513 1.78747 387.925 1.17814C387.337 0.571475 386.571 0.266113 385.625 0.266113C384.737 0.266113 383.993 0.571475 383.392 1.17814C382.789 1.78747 382.489 2.54478 382.489 3.45011C382.489 4.35811 382.789 5.11278 383.392 5.72078C383.993 6.33012 384.737 6.6355 385.625 6.6355Z" fill="#002954"/>
<path d="M225.676 60.5456L213.515 90.3896H219.617L221.773 84.8283H234.207L236.333 90.3896H242.565L230.447 60.5456H225.676ZM223.649 79.9883L228.032 68.6843L232.356 79.9883H223.649Z" fill="#002954"/>
<path d="M250.431 60.5456V90.3896H256.275V78.1643H269.941V73.0257H256.275V65.6403H270.669V60.5456H250.431Z" fill="#002954"/>
<path d="M279.567 60.5456V90.3896H285.411V78.1643H299.077V73.0257H285.411V65.6403H299.807V60.5456H279.567Z" fill="#002954"/>
<path d="M316.139 60.5456L303.977 90.3896H310.08L312.236 84.8283H324.669L326.796 90.3896H333.028L320.909 60.5456H316.139ZM314.112 79.9883L318.495 68.6843L322.819 79.9883H314.112Z" fill="#002954"/>
<path d="M316.16 56.6617C316.745 56.0524 317.039 55.2977 317.039 54.391C317.039 53.4844 316.745 52.7284 316.16 52.1191C315.572 51.5124 314.807 51.207 313.86 51.207C312.972 51.207 312.227 51.5124 311.625 52.1191C311.024 52.7284 310.721 53.4844 310.721 54.391C310.721 55.2977 311.024 56.0524 311.625 56.6617C312.227 57.271 312.972 57.5764 313.86 57.5764C314.807 57.5764 315.572 57.271 316.16 56.6617Z" fill="#002954"/>
<path d="M325.4 56.6617C325.985 56.0524 326.281 55.2977 326.281 54.391C326.281 53.4844 325.985 52.7284 325.4 52.1191C324.812 51.5124 324.045 51.207 323.1 51.207C322.212 51.207 321.465 51.5124 320.865 52.1191C320.264 52.7284 319.964 53.4844 319.964 54.391C319.964 55.2977 320.264 56.0524 320.865 56.6617C321.465 57.271 322.212 57.5764 323.1 57.5764C324.045 57.5764 324.812 57.271 325.4 56.6617Z" fill="#002954"/>
<path d="M357.824 76.8269C359.315 76.1042 360.468 75.1015 361.283 73.8121C362.1 72.5241 362.509 71.0041 362.509 69.2495C362.509 67.5521 362.1 66.0508 361.283 64.7495C360.468 63.4481 359.321 62.4228 357.847 61.6722C356.371 60.9215 354.659 60.5455 352.711 60.5455H340.893V90.3895H346.739V77.9095H347.753L357.396 90.3895H364.485L354.375 77.7949C355.639 77.6416 356.795 77.3269 357.824 76.8269ZM346.739 65.2588H352.196C353.628 65.2588 354.736 65.6468 355.524 66.4255C356.313 67.2042 356.707 68.1735 356.707 69.3348C356.707 70.6082 356.313 71.6055 355.524 72.3255C354.736 73.0481 353.628 73.4095 352.196 73.4095H346.739V65.2588Z" fill="#002954"/>
<path d="M388.359 75.363C387.512 74.683 386.583 74.1296 385.565 73.707C384.549 73.2816 383.531 72.8989 382.513 72.5589C381.496 72.2216 380.567 71.8669 379.72 71.4989C378.875 71.1323 378.196 70.6909 377.679 70.1829C377.164 69.6723 376.905 69.0096 376.905 68.1882C376.905 67.2269 377.292 66.4896 378.065 65.9803C378.839 65.4696 379.899 65.2176 381.247 65.2176C382.421 65.2176 383.473 65.4443 384.405 65.8949C385.335 66.3496 386.245 67.0563 387.133 68.019L391 64.1976C389.94 62.9803 388.58 61.9896 386.919 61.2256C385.257 60.4629 383.396 60.0789 381.332 60.0789C379.384 60.0789 377.637 60.4189 376.088 61.0976C374.543 61.7789 373.324 62.7536 372.435 64.0282C371.547 65.3016 371.103 66.8443 371.103 68.655C371.103 70.183 371.361 71.4509 371.879 72.4549C372.393 73.4576 373.073 74.2789 373.92 74.9163C374.764 75.5523 375.695 76.083 376.712 76.5083C377.729 76.9323 378.745 77.3096 379.764 77.6322C380.78 77.9589 381.712 78.3189 382.556 78.7162C383.401 79.1109 384.083 79.5936 384.597 80.1589C385.115 80.7256 385.372 81.4616 385.372 82.3669C385.372 83.4136 384.92 84.235 384.019 84.8283C383.115 85.423 381.904 85.7203 380.387 85.7203C378.695 85.7203 377.264 85.4016 376.088 84.7642C374.913 84.1269 373.883 83.2309 372.995 82.0696L369.127 85.891C370.531 87.531 372.1 88.7616 373.833 89.5829C375.565 90.4029 377.651 90.8149 380.087 90.8149C383.524 90.8149 386.232 90.0229 388.208 88.4363C390.185 86.8523 391.173 84.6736 391.173 81.9002C391.173 80.3442 390.916 79.0349 390.4 77.9723C389.885 76.9123 389.203 76.0416 388.359 75.363Z" fill="#002954"/>
<path d="M411.483 81.4994L403.504 60.546H397.187L409.093 90.39H413.733L425.767 60.546H419.533L411.483 81.4994Z" fill="#002954"/>
<path d="M439.861 77.6123H453.528V72.6882H439.861V65.6403H454.816V60.5456H434.017V90.3896H455.032V85.2949H439.861V77.6123Z" fill="#002954"/>
<path d="M481.119 76.8269C482.608 76.1042 483.76 75.1015 484.577 73.8121C485.395 72.5241 485.801 71.0041 485.801 69.2495C485.801 67.5521 485.395 66.0508 484.577 64.7495C483.76 63.4481 482.615 62.4228 481.139 61.6722C479.663 60.9215 477.952 60.5455 476.003 60.5455H464.185V90.3895H470.031V77.9095H471.045L480.688 90.3895H487.779L477.667 77.7949C478.931 77.6416 480.087 77.3269 481.119 76.8269ZM470.031 65.2588H475.488C476.92 65.2588 478.031 65.6468 478.819 66.4255C479.605 67.2042 480.001 68.1735 480.001 69.3348C480.001 70.6082 479.605 71.6055 478.819 72.3255C478.031 73.0481 476.92 73.4095 475.488 73.4095H470.031V65.2588Z" fill="#002954"/>
<path d="M521.085 90.3896L507.577 74.7443L520.612 60.5456H513.308L501.232 74.0403V60.5456H495.388V90.3896H501.232V75.6297L513.651 90.3896H521.085Z" fill="#002954"/>
</svg>
