<svg xmlns="http://www.w3.org/2000/svg" xmlns:xlink="http://www.w3.org/1999/xlink" viewBox="0 0 178.28 84"><defs><style>.cls-1{fill:none;}.cls-2{fill:#5692ce;}.cls-3{fill:#f49800;}.cls-4{clip-path:url(#clip-path);}</style><clipPath id="clip-path" transform="translate(0)"><rect class="cls-1" width="178.28" height="84"/></clipPath></defs><g id="Lager_2" data-name="Lager 2"><g id="Lager_1-2" data-name="Lager 1"><polyline class="cls-2" points="83.29 48.06 83.29 58.42 80.3 58.42 80.3 42.72 83.76 42.72 89.15 52.63 89.15 42.72 92.14 42.72 92.14 58.42 88.92 58.42 83.29 48.06"/><path class="cls-2" d="M101.74,42.72v9.91a5.62,5.62,0,0,1-5.62,5.9,6.29,6.29,0,0,1-2.27-.28l.31-2.63a6.08,6.08,0,0,0,1.47.16c2,0,3.1-.92,3.1-3.3V42.72h3" transform="translate(0)"/><path class="cls-2" d="M104.78,52.8V42.72h3v10c0,2.29,1,3.14,2.91,3.14s2.71-.85,2.71-3.14v-10h3v10c0,3.63-2.05,5.92-5.72,5.92s-5.9-2.27-5.9-5.84" transform="translate(0)"/><path class="cls-2" d="M119.58,58.42V42.72h4.85a7.58,7.58,0,0,1,7.85,7.79c0,4.94-3.41,7.91-8,7.91h-4.69m3-12.92V55.6h1.31c3.29,0,5.34-2.14,5.34-5.07s-2-5-5.34-5Z" transform="translate(0)"/><path class="cls-2" d="M134.88,52.8V42.72h3v10c0,2.29,1,3.14,2.91,3.14s2.71-.85,2.71-3.14v-10h3v10c0,3.63-2.05,5.92-5.72,5.92s-5.9-2.27-5.9-5.84" transform="translate(0)"/><polyline class="cls-2" points="153.13 48.06 153.13 58.42 150.14 58.42 150.14 42.72 153.59 42.72 158.99 52.63 158.99 42.72 161.97 42.72 161.97 58.42 158.75 58.42 153.13 48.06"/><polyline class="cls-2" points="80.3 64.59 89.55 64.59 89.55 67.36 83.31 67.36 83.31 70.84 87.65 70.84 87.65 73.62 83.31 73.62 83.31 77.51 89.55 77.51 89.55 80.29 80.3 80.29 80.3 64.59"/><polyline class="cls-2" points="95.4 69.92 95.4 80.29 92.41 80.29 92.41 64.59 95.86 64.59 101.26 74.49 101.26 64.59 104.24 64.59 104.24 80.29 101.02 80.29 95.4 69.92"/><polyline class="cls-2" points="108.01 64.59 117.25 64.59 117.25 67.36 111.02 67.36 111.02 70.84 115.35 70.84 115.35 73.62 111.02 73.62 111.02 77.51 117.25 77.51 117.25 80.29 108.01 80.29 108.01 64.59"/><path class="cls-2" d="M125.43,74.32h-2.35v6h-3V64.59h6.26c3.08,0,5.09,1.77,5.09,4.85A4.47,4.47,0,0,1,128.47,74l3.17,6.32H128.4l-3-6m-2.35-7v4.16h3.17c1.43,0,2.2-.66,2.2-2a2,2,0,0,0-2.2-2.19Z" transform="translate(0)"/><path class="cls-2" d="M133.78,72.41c0-4.94,2.41-8,6.8-8a6.28,6.28,0,0,1,5.88,3.15l-2.8,1.74a3.86,3.86,0,0,0-3.08-1.92c-2.46,0-3.69,1.71-3.69,5.07,0,3,1.44,5.21,3.69,5.21a3.06,3.06,0,0,0,3.21-2.69l.08-.62h-3.34V71.52h6.61V73.4c0,3.63-2.81,7.1-6.56,7.1-4.07,0-6.8-3.5-6.8-8.09" transform="translate(0)"/><path class="cls-2" d="M164.93,50.55c0-4.94,2.4-8,6.79-8a6.32,6.32,0,0,1,5.89,3.15l-2.8,1.75a3.87,3.87,0,0,0-3.09-1.92c-2.45,0-3.69,1.7-3.69,5.07,0,3,1.45,5.21,3.69,5.21a3,3,0,0,0,3.21-2.69l.09-.62h-3.34V49.66h6.6v1.88c0,3.62-2.8,7.1-6.56,7.1-4.06,0-6.79-3.5-6.79-8.09" transform="translate(0)"/><rect class="cls-2" x="150.14" y="64.59" width="3.01" height="15.7"/><path class="cls-3" d="M68,10.3A10.3,10.3,0,1,1,57.72,0,10.3,10.3,0,0,1,68,10.3" transform="translate(0)"/><path class="cls-2" d="M40.51,70.28a5.63,5.63,0,0,0,4.78,1.1c3.57-.73,7.65-4.39,10.39-9.33,3.11-5.6,5.71-13.94,7-19.33H47.34V60.36H36c.83,4,2.08,8,4.49,9.92" transform="translate(0)"/><path class="cls-2" d="M68.11,42.72h-4c-1.3,5.46-4,14.16-7.22,20-2.92,5.28-7.37,9.2-11.32,10a7.87,7.87,0,0,1-1.58.17,6.83,6.83,0,0,1-4.31-1.53c-2.8-2.2-4.16-6.63-5.05-11H24.19a25,25,0,0,0,4.75,14.74A21.12,21.12,0,0,0,63,75.63a24.84,24.84,0,0,0,5.11-14.1c0-.42,0-18.81,0-18.81" transform="translate(0)"/><path class="cls-3" d="M28.34,30.75a4.87,4.87,0,0,0-4-1.67c-3.55.22-7.6,4-10.21,7.49a47,47,0,0,0-7,13.94c-.53,1.7-1,3.5-1.5,5.24l-.3,1.11H20V44.51s.21-1.94,2-1.94a2.12,2.12,0,0,1,2.05,1.94V56.86H34c-.17-1.14-.36-2.5-.56-4-1-7.34-2.7-19.63-5.1-22.13" transform="translate(0)"/><g class="cls-4"><path class="cls-3" d="M5.8,50.1A47.85,47.85,0,0,1,13,35.75c1.35-1.81,6.16-7.73,11.22-8a6.26,6.26,0,0,1,5.07,2.09c2.5,2.6,4,12.31,5.47,22.9.21,1.56.41,3,.59,4.16H43.9V39.09a25,25,0,0,0-4.71-14.75,21.13,21.13,0,0,0-34.07-.51A24.81,24.81,0,0,0,0,37.92c0,.43,0,18.94,0,18.94H3.9c.13-.49.27-1,.4-1.47.48-1.75,1-3.57,1.5-5.29" transform="translate(0)"/></g></g></g></svg>