<svg width="120" height="32" viewBox="0 0 120 32" fill="none" xmlns="http://www.w3.org/2000/svg">
<g clip-path="url(#clip0)">
<path d="M103.724 0L103.14 0.583281C102.034 1.6895 102.034 3.49969 103.14 4.60591L107.606 9.07102L100.687 15.9899L107.606 22.9089L103.14 27.374C102.034 28.4802 102.034 30.2904 103.14 31.3966L103.724 31.9799L119.673 15.9899L103.724 0Z" fill="#E30613"/>
<path d="M11.7461 17.6191L3.62036 5.16907H0V23.3111H3.62036V10.9818L11.7461 23.3111H15.3664V5.16907H11.7461V17.6191Z" fill="#1D1D1B"/>
<path d="M27.8971 9.77502C26.7909 9.19174 25.5439 8.91016 24.156 8.91016C22.7682 8.91016 21.5212 9.21185 20.415 9.77502C19.3088 10.3583 18.4439 11.2031 17.8003 12.3093C17.1567 13.4155 16.855 14.7027 16.855 16.2112C16.855 17.7197 17.1768 18.9868 17.8003 20.0931C18.4238 21.1993 19.3088 22.0239 20.415 22.6273C21.5212 23.2106 22.7682 23.5123 24.156 23.5123C25.5439 23.5123 26.7909 23.2106 27.8971 22.6273C29.0033 22.044 29.8682 21.1993 30.5118 20.0931C31.1353 18.9868 31.4571 17.6996 31.4571 16.2112C31.4571 14.7229 31.1353 13.4155 30.5118 12.3093C29.8682 11.2031 29.0033 10.3583 27.8971 9.77502ZM26.7104 19.2885C26.0065 19.9925 25.1416 20.3545 24.1359 20.3545C23.1303 20.3545 22.2654 19.9925 21.5615 19.2885C20.8575 18.5846 20.5156 17.5387 20.5156 16.1911C20.5156 14.8435 20.8575 13.7976 21.5615 13.0937C22.2654 12.3897 23.1102 12.0277 24.1359 12.0277C25.1416 12.0277 26.0065 12.3897 26.7104 13.0937C27.4144 13.7976 27.7563 14.8435 27.7563 16.1911C27.7764 17.5588 27.4144 18.5846 26.7104 19.2885Z" fill="#1D1D1B"/>
<path d="M42.3579 9.07104L38.7577 19.6908L35.1373 9.07104H31.2555L36.5251 23.3111H40.95L46.2197 9.07104H42.3579Z" fill="#1D1D1B"/>
<path d="M56.7994 9.77502C55.6932 9.19174 54.4462 8.91016 53.0584 8.91016C51.6706 8.91016 50.4236 9.21185 49.3173 9.77502C48.2111 10.3583 47.3463 11.2031 46.7026 12.3093C46.059 13.4155 45.7573 14.7027 45.7573 16.2112C45.7573 17.7197 46.0791 18.9868 46.7026 20.0931C47.3261 21.1993 48.2111 22.0239 49.3173 22.6273C50.4236 23.2106 51.6706 23.5123 53.0584 23.5123C54.4462 23.5123 55.6932 23.2106 56.7994 22.6273C57.9057 22.044 58.7705 21.1993 59.4141 20.0931C60.0376 18.9868 60.3595 17.6996 60.3595 16.2112C60.3595 14.7229 60.0376 13.4155 59.4141 12.3093C58.7705 11.2031 57.9057 10.3583 56.7994 9.77502ZM55.6329 19.2885C54.9289 19.9925 54.064 20.3545 53.0584 20.3545C52.0527 20.3545 51.1879 19.9925 50.4839 19.2885C49.78 18.5846 49.438 17.5387 49.438 16.1911C49.438 14.8435 49.78 13.7976 50.4839 13.0937C51.1879 12.3897 52.0326 12.0277 53.0584 12.0277C54.064 12.0277 54.9289 12.3897 55.6329 13.0937C56.3368 13.7976 56.6788 14.8435 56.6788 16.1911C56.6788 17.5588 56.3368 18.5846 55.6329 19.2885Z" fill="#1D1D1B"/>
<path d="M65.77 19.7913C65.4884 19.5097 65.3677 19.0471 65.3677 18.3432V12.1282H68.5456V9.07102H65.3677V5.16907H61.7473V9.07102V12.1282V18.3029C61.7473 20.093 62.1697 21.3803 63.0144 22.1647C63.8592 22.929 65.0861 23.3111 66.6751 23.3111H68.5858V20.1936H67.1779C66.5141 20.2137 66.0515 20.0729 65.77 19.7913Z" fill="#1D1D1B"/>
<path d="M99.2384 23.3111L91.9373 15.9899L98.8563 9.07102H94.5319L89.0813 14.5418V5.16907H85.4408V23.3111H89.0813V17.4582L94.9141 23.3111H99.2384Z" fill="#1D1D1B"/>
<path d="M80.412 9.77502C79.3057 9.19174 78.0587 8.91016 76.6709 8.91016C75.2831 8.91016 74.0361 9.21185 72.9299 9.77502C71.8237 10.3583 70.9588 11.2031 70.3152 12.3093C69.6716 13.4155 69.3699 14.7027 69.3699 16.2112C69.3699 17.7197 69.6917 18.9868 70.3152 20.0931C70.9588 21.1993 71.8237 22.0239 72.9299 22.6273C74.0361 23.2307 75.2831 23.5123 76.6709 23.5123C78.0587 23.5123 79.3057 23.2106 80.412 22.6273C80.8142 22.4061 81.1964 22.1647 81.5383 21.863L79.1046 19.4293C78.4208 20.0528 77.6162 20.3746 76.6709 20.3746C75.6653 20.3746 74.8004 20.0126 74.0965 19.3086C73.6942 18.8863 73.3925 18.3633 73.2316 17.7398H80.6533H83.8312C83.9116 17.2571 83.9519 16.7543 83.9519 16.2112C83.9519 14.7229 83.6301 13.4155 83.0066 12.3093C82.383 11.2031 81.5182 10.3583 80.412 9.77502ZM76.6709 12.0277C77.6766 12.0277 78.5414 12.3897 79.2454 13.0937C79.6879 13.5563 80.0097 14.1396 80.1706 14.8636H73.1914C73.3523 14.1396 73.654 13.5563 74.1166 13.0937C74.8004 12.3897 75.6452 12.0277 76.6709 12.0277Z" fill="#1D1D1B"/>
<path d="M119.673 15.99H100.706L107.625 22.9089L103.16 27.374C102.054 28.4802 102.054 30.2904 103.16 31.3967L103.743 31.9799L119.673 15.99Z" fill="#A70F08"/>
</g>
<defs>
<clipPath id="clip0">
<rect width="119.673" height="32" fill="white"/>
</clipPath>
</defs>
</svg>
