<svg width="114" height="41" viewBox="0 0 114 41" fill="none" xmlns="http://www.w3.org/2000/svg">
<path d="M108.7 9.3C111.2 9.3 113.3 7.2 113.3 4.6C113.3 2.1 111.2 0 108.7 0C106.2 0 104.1 2.1 104.1 4.6C104.1 7.2 106.2 9.3 108.7 9.3Z" fill="#161412"/>
<path d="M112.5 12.1H104.9V39.8H112.5V12.1Z" fill="#161412"/>
<path d="M42.7 1H35.1V39.8H42.7V1Z" fill="#161412"/>
<path d="M21.7 12.1V13.6C19.5 12.3 17.1 11.6 14.4 11.6C10.4 11.6 7.1 13 4.3 15.8C1.4 18.7 0 22 0 26C0 30 1.4 33.3 4.2 36.1C7 38.9 10.4 40.3 14.3 40.3C17 40.3 19.5 39.6 21.6 38.3V39.8H28.6V12.1H21.7ZM19.5 31.2C18.2 32.5 16.3 33.4 14.3 33.4C12.3 33.4 10.5 32.6 9.1 31.2C7.8 29.9 7 28 7 26C7 24 7.8 22.1 9.1 20.8C10.4 19.5 12.3 18.7 14.3 18.7C16.3 18.7 18.2 19.5 19.5 20.8C20.8 22.1 21.6 23.9 21.6 26C21.7 28 20.9 29.9 19.5 31.2Z" fill="#161412"/>
<path d="M99.5 26V39.9H92.5V26C92.5 24 91.7 22.1 90.4 20.8C89.1 19.5 87.2 18.7 85.2 18.7C83.2 18.7 81.3 19.5 80 20.8C78.7 22.1 77.9 23.9 77.9 26V39.9H70.9V26C70.9 24 70.1 22.1 68.7 20.8C67.4 19.5 65.5 18.7 63.5 18.7C61.5 18.7 59.6 19.5 58.3 20.8C57 22.1 56.1 24 56.1 26V39.9H49.1V12.1H56.1V13.6C58.3 12.3 60.7 11.6 63.4 11.6C67.4 11.6 70.8 13 73.6 15.8C73.8 16 74.1 16.3 74.3 16.5C74.5 16.3 74.8 16 75 15.8C77.8 13 81.2 11.6 85.1 11.6C89.1 11.6 92.5 13 95.3 15.8C98.1 18.7 99.5 22 99.5 26Z" fill="#161412"/>
</svg>
