<?xml version="1.0" encoding="UTF-8"?>
<!-- Generator: Adobe Illustrator 26.3.1, SVG Export Plug-In . SVG Version: 6.00 Build 0)  -->
<svg version="1.1" id="Layer_1" xmlns="http://www.w3.org/2000/svg" xmlns:xlink="http://www.w3.org/1999/xlink" x="0px" y="0px" viewBox="0 0 850 200" style="enable-background:new 0 0 850 200;" xml:space="preserve">
<style type="text/css">
	.st0{fill:#1E5053;}
	.st1{fill:#FF5F15;}
	.st2{display:none;}
	.st3{display:inline;fill:none;stroke:#000000;stroke-width:0.5;stroke-miterlimit:10;}
	.st4{display:inline;}
	.st5{fill:#F7F5F2;}
</style>
<g id="Lager_1">
	<g>
		<path class="st0" d="M107.8,0h-22c-4.2,0-8,2.2-10.1,5.7l-73.6,125c-1.4,2.3-2.1,5-2.1,7.6v51.2c0,4.9,4,8.8,9,8.8h21.2    c5.6,0,10.7-2.9,13.5-7.6l73.1-124.2l0-57.7C116.8,3.9,112.7,0,107.8,0"/>
		<path class="st1" d="M116.7,66.5l0,62.4c0,2.7,0.7,5.3,2.1,7.6l33.1,56.3c2,3.4,5.8,5.5,9.8,5.5h59.7c4.7,0,7.7-5,5.3-9    L157.4,71.6c-1.8-3.1-5.2-5.1-8.9-5.1L116.7,66.5z"/>
	</g>
	<g>
		<path class="st0" d="M374.6,148.1L349,76.3c-0.4-1.2-2.2-1.2-2.6,0l-26.1,71.8c-0.7,1.8,0.7,3.7,2.6,3.7H372    C373.9,151.8,375.3,149.9,374.6,148.1 M335.5,66.5h24.4c1.2,0,2.2,0.7,2.6,1.8l47.5,130h-15.4c-1.2,0-2.2-0.7-2.6-1.8l-9.7-26    c-0.8-2.2-2.9-3.6-5.2-3.6h-59.6c-2.3,0-4.3,1.4-5.2,3.5l-10,26.1c-0.4,1.1-1.4,1.8-2.6,1.8h-15.4l48.5-130    C333.3,67.2,334.3,66.5,335.5,66.5"/>
		<path class="st0" d="M467.8,185.3c6.7,0,12.8-1.7,18.3-5c5.6-3.3,10-7.8,13.3-13.5c3.3-5.6,4.9-11.8,4.9-18.5    c0-6.6-1.6-12.8-4.9-18.5c-3.3-5.6-7.7-10.1-13.3-13.5c-5.6-3.3-11.7-5-18.3-5c-6.7,0-12.7,1.6-18.3,4.9    c-5.5,3.3-9.9,7.7-13.1,13.4s-4.8,11.9-4.8,18.6c0,6.6,1.6,12.8,4.8,18.5c3.2,5.6,7.6,10.1,13.1,13.5    C455.1,183.6,461.2,185.3,467.8,185.3 M466.5,200c-9,0-17.4-2.4-25-7.1c-7.7-4.7-13.7-11-18.3-18.9c-4.5-7.9-6.8-16.4-6.8-25.6    c0-9.4,2.2-18.1,6.7-26c4.5-7.9,10.5-14.1,18.3-18.7c7.7-4.6,16.1-6.9,25.1-6.9c7.8,0,14.9,1.8,21.4,5.4    c5.2,2.9,9.5,6.6,13.1,11.1c0.8,1,2.5,0.5,2.5-0.8V69.3c0-1.5,1.2-2.8,2.8-2.8h13.2v129c0,1.5-1.2,2.8-2.8,2.8h-13.2v-14    c0-1.3-1.6-1.9-2.4-0.9c-3.5,4.5-7.9,8.2-13.1,11.1C481.4,198.2,474.3,200,466.5,200"/>
		<path class="st0" d="M534.9,98.5H550c1.2,0,2.2,0.8,2.6,1.9l30.2,88.2c0.4,1.2,2.2,1.2,2.6,0l30.1-88.2c0.4-1.1,1.4-1.9,2.6-1.9    h15.2l-34.9,98c-0.4,1.1-1.4,1.8-2.6,1.8h-23.4c-1.2,0-2.2-0.7-2.6-1.8L534.9,98.5z"/>
		<path class="st0" d="M722.2,141.5c1.8,0,3.1-1.7,2.7-3.5c-1-4.2-2.7-8.1-5.2-11.8c-3.1-4.6-7.2-8.3-12.2-11c-5-2.7-10.5-4-16.6-4    c-6.2,0-11.8,1.4-16.8,4c-5.1,2.7-9.2,6.4-12.3,11c-2.5,3.7-4.2,7.6-5.2,11.8c-0.4,1.8,0.9,3.5,2.7,3.5H722.2z M691.1,199.8    c-12.2,0-23-3.9-32.6-11.6c-3.3-2.7-6.3-5.9-8.8-9.4c-6.6-9.2-9.9-19.4-9.9-30.6c0-12,3.7-22.8,11.2-32.3c2.6-3.3,5.7-6.3,9.1-8.8    c9.2-6.9,19.5-10.3,30.9-10.3c8.4,0,16.2,2,23.4,5.8c7.2,3.9,13.2,9.2,17.9,16c4.7,6.8,7.6,14.2,8.8,22.4c0.9,4.9,0.9,9.2,0.2,13    h-82.3c-1.8,0-3.1,1.6-2.7,3.3c0.9,4.8,2.7,9.2,5.4,13c3.3,4.8,7.5,8.4,12.6,11c5.2,2.6,10.7,3.9,16.8,3.9    c6.4,0,12.4-1.4,18.1-4.3c4.6-2.4,8.6-5.4,11.8-9.1c1.3-1.5,3.4-2.2,5.4-1.7l11.1,2.6c-4,8.2-10.3,14.7-18.9,19.7    C709.9,197.3,700.8,199.8,691.1,199.8"/>
		<path class="st0" d="M757.4,98.5h13.2c1.5,0,2.8,1.2,2.8,2.8v10c0,1.3,1.7,1.9,2.5,0.8c3.1-3.9,6.9-7.3,11.5-10    c5.9-3.5,12.7-5.3,20.5-5.3c7.4,0,14.3,1.6,20.8,4.9c6.5,3.3,11.6,8,15.5,14.2c3.9,6.2,5.8,13.5,5.8,21.9v57.7    c0,1.5-1.2,2.8-2.8,2.8H834v-55.5c0-6.6-1.3-12.3-4-16.9s-6.2-8.2-10.6-10.5s-9.2-3.6-14.5-3.6c-6,0-11.5,1.5-16.3,4.6    c-4.8,3.1-8.6,7.3-11.3,12.7c-2.7,5.4-4,11.5-4,18.3v51h-13.2c-1.5,0-2.8-1.2-2.8-2.8L757.4,98.5L757.4,98.5z"/>
	</g>
</g>
<g id="GRID" class="st2">
	<line class="st3" x1="-535.3" y1="-198.3" x2="1384.7" y2="-198.3"/>
	<line class="st3" x1="-227.5" y1="-405.8" x2="-227.5" y2="674.2"/>
	<g class="st4">
		<path class="st5" d="M-119.8,198.3h-22c-4.2,0-8,2.2-10.1,5.7l-73.6,125c-1.4,2.3-2.1,5-2.1,7.6v51.2c0,4.9,4,8.8,9,8.8h21.2    c5.6,0,10.7-2.9,13.5-7.6l73.1-124.2l0-57.7C-110.8,202.2-114.8,198.3-119.8,198.3"/>
		<path class="st5" d="M-110.8,264.8l0,62.4c0,2.7,0.7,5.3,2.1,7.6l33.1,56.3c2,3.4,5.8,5.5,9.8,5.5h59.7c4.7,0,7.7-5,5.3-9    l-69.3-117.7c-1.8-3.1-5.2-5.1-8.9-5.1L-110.8,264.8z"/>
	</g>
	<g class="st4">
		<path class="st5" d="M955.3-198.3h-22c-4.2,0-8,2.2-10.1,5.7l-73.6,125c-1.4,2.3-2.1,4.9-2.1,7.6v51.2c0,4.9,4,8.8,9,8.8h21.2    c5.6,0,10.7-2.9,13.5-7.6l73.1-124.2l0-57.7C964.3-194.4,960.3-198.3,955.3-198.3"/>
		<path class="st5" d="M964.2-131.8l0,62.4c0,2.7,0.7,5.3,2.1,7.6l33.1,56.3c2,3.4,5.8,5.5,9.8,5.5h59.7c4.7,0,7.7-5,5.3-9    l-69.3-117.7c-1.8-3.1-5.2-5.1-8.9-5.1L964.2-131.8z"/>
	</g>
	<line class="st3" x1="-535.3" y1="198.3" x2="1384.7" y2="198.3"/>
	<line class="st3" x1="-535.3" y1="396.6" x2="1384.7" y2="396.6"/>
	<line class="st3" x1="-535.3" y1="66.8" x2="1384.7" y2="66.8"/>
	<line class="st3" x1="-535.3" y1="0" x2="1384.7" y2="0"/>
	<line class="st3" x1="0" y1="-405.8" x2="0" y2="674.2"/>
	<line class="st3" x1="227.5" y1="-405.8" x2="227.5" y2="674.2"/>
	<line class="st3" x1="284.4" y1="-405.8" x2="284.4" y2="674.2"/>
	<line class="st3" x1="847.5" y1="-405.8" x2="847.5" y2="674.2"/>
	<line class="st3" x1="1075.1" y1="-405.8" x2="1075.1" y2="674.2"/>
</g>
</svg>